<svg width="38" height="38" viewBox="0 0 38 38" fill="none" xmlns="http://www.w3.org/2000/svg">
<g id="cookies">
<path id="Vector" d="M18.3467 1.26173C16.7065 1.03165 15.0365 1.32852 13.567 2.10782L8.07481 5.03946C6.6127 5.81876 5.43262 7.04337 4.70528 8.53516L1.98145 14.1461C1.25411 15.6379 1.01661 17.3301 1.30606 18.9629L2.38223 25.1082C2.67169 26.7484 3.46583 28.2477 4.66075 29.4055L9.13614 33.7399C10.3311 34.8977 11.8525 35.6399 13.4928 35.8699L19.6529 36.7383C21.2932 36.9684 22.9631 36.6715 24.4326 35.8922L29.9248 32.9606C31.3869 32.1813 32.567 30.9566 33.2943 29.4574L36.0182 23.8539C36.7455 22.3621 36.983 20.6699 36.6936 19.0371L35.61 12.8918C35.3205 11.2516 34.5264 9.75235 33.3315 8.59454L28.8635 4.26758C27.6686 3.10977 26.1471 2.36758 24.5068 2.13751L18.3467 1.26173ZM15.4373 10.6875C16.0672 10.6875 16.6713 10.9377 17.1167 11.3831C17.5621 11.8285 17.8123 12.4326 17.8123 13.0625C17.8123 13.6924 17.5621 14.2965 17.1167 14.7419C16.6713 15.1873 16.0672 15.4375 15.4373 15.4375C14.8074 15.4375 14.2033 15.1873 13.7579 14.7419C13.3125 14.2965 13.0623 13.6924 13.0623 13.0625C13.0623 12.4326 13.3125 11.8285 13.7579 11.3831C14.2033 10.9377 14.8074 10.6875 15.4373 10.6875ZM10.6873 24.9375C10.6873 24.3076 10.9375 23.7035 11.3829 23.2581C11.8283 22.8127 12.4324 22.5625 13.0623 22.5625C13.6922 22.5625 14.2963 22.8127 14.7417 23.2581C15.1871 23.7035 15.4373 24.3076 15.4373 24.9375C15.4373 25.5674 15.1871 26.1715 14.7417 26.6169C14.2963 27.0623 13.6922 27.3125 13.0623 27.3125C12.4324 27.3125 11.8283 27.0623 11.3829 26.6169C10.9375 26.1715 10.6873 25.5674 10.6873 24.9375ZM27.3123 20.1875C27.9422 20.1875 28.5463 20.4377 28.9917 20.8831C29.4371 21.3285 29.6873 21.9326 29.6873 22.5625C29.6873 23.1924 29.4371 23.7965 28.9917 24.2419C28.5463 24.6873 27.9422 24.9375 27.3123 24.9375C26.6824 24.9375 26.0783 24.6873 25.6329 24.2419C25.1875 23.7965 24.9373 23.1924 24.9373 22.5625C24.9373 21.9326 25.1875 21.3285 25.6329 20.8831C26.0783 20.4377 26.6824 20.1875 27.3123 20.1875Z" fill="white"/>
</g>
</svg>
